<svg role="img" version="1.1" viewBox="0 0 1024 1024" xmlns="http://www.w3.org/2000/svg" xmlns:cc="http://creativecommons.org/ns#" xmlns:dc="http://purl.org/dc/elements/1.1/" xmlns:rdf="http://www.w3.org/1999/02/22-rdf-syntax-ns#"><title>Corvelloni Contabilidade</title><style>.brand-primary { fill: #B73239; }
    .brand-dark { fill: #000; }
    text { font-family: "Montserrat", "DejaVu Sans", Arial, sans-serif; }</style><text class="brand-dark" x="512" y="634.88" font-size="97.3px" font-weight="700" letter-spacing="4.608" text-anchor="middle">CORVELLONI</text><text class="brand-primary" x="512" y="727.28003" font-size="61.4px" font-weight="600" letter-spacing="4.608" text-anchor="middle">CONTABILIDADE</text><path d="m466.7 532.5c0-.5432.4444-.9876.9876-.9876.5432 0 .9877.4444.9877.9876s-.4444.9876-.9877.9876c-.5432 0-.9876-.4444-.9876-.9876zm-22.94-4.889c-131.3-34.42-172.9-204.8-72.82-297.9 110.5-102.8 289.5-31.78 300.3 119.1 1.589 22.35.7497 23.39-3.989 4.938-29.01-112.9-152.9-159.1-244.2-91.11-90.12 67.16-74.75 206.1 28.91 261.4 15.29 8.154 13.06 9.133-8.125 3.578zm-32.99-81.31c-13.14-19.84-18.03-36.98-17.96-62.93l.0597-20.74 5.254-15.18c41.13-118.9 221.5-105.3 235.7 17.74l1.068 9.299-7.493-13.7c-68.16-124.6-253.5-49.1-210.3 85.72 5.3 16.54 4.817 16.52-6.254-.193z" fill="#c74050"/><metadata><rdf:RDF><cc:Work rdf:about=""><dc:title>Corvelloni Contabilidade</dc:title></cc:Work></rdf:RDF></metadata></svg>
